# xmcd CD database file
#
# Track frame offsets:
#	187
#	13782
#	29150
#	48045
#	63065
#	80880
#	102495
#	119082
#	137052
#	154342
#	167107
#	176362
#	199667
#	210330
#	224350
#
# Disc length: 3196 seconds
#
# Revision: 0
# Processed by: cddbd v1.5PL3 Copyright (c) Steve Scherf et al.
# Submitted via: CDex 1.50
#
DISCID=d80c7a0f
DTITLE=Lloyd Cole  - Love Story
DYEAR=1997
DGENRE=Rock
TTITLE0=Trigger Happy
TTITLE1=Sentimental Fool
TTITLE2=I Didn't Know That You Cared
TTITLE3=Love Ruins Everything
TTITLE4=Baby
TTITLE5=Be There
TTITLE6=Unhappy Song
TTITLE7=Like Lovers Do
TTITLE8=Happy For You
TTITLE9=Traffic
TTITLE10=Let's Get Lost
TTITLE11=For Crying Out Loud
TTITLE12=I Will Not Leave You Alone
TTITLE13=Millionaire
TTITLE14=The Steady Slowing Down Of The Heart
EXTD=YEAR: 1997
EXTT0=
EXTT1=
EXTT2=
EXTT3=
EXTT4=
EXTT5=
EXTT6=
EXTT7=
EXTT8=
EXTT9=
EXTT10=
EXTT11=
EXTT12=
EXTT13=
EXTT14=
PLAYORDER=
